<svg width="20" height="20" viewBox="0 0 20 20" fill="none" xmlns="http://www.w3.org/2000/svg">
    <path d="M10 18.3333C5.39752 18.3333 1.66669 14.6025 1.66669 9.99999C1.66669 5.39749 5.39752 1.66666 10 1.66666C14.6025 1.66666 18.3334 5.39749 18.3334 9.99999C18.3334 14.6025 14.6025 18.3333 10 18.3333ZM8.09169 16.3892C7.26953 14.6453 6.79325 12.7585 6.68919 10.8333H3.38502C3.54718 12.1157 4.07829 13.3235 4.91383 14.3097C5.74937 15.296 6.85337 16.0184 8.09169 16.3892ZM8.35835 10.8333C8.48419 12.8658 9.06502 14.775 10 16.46C10.9603 14.7305 11.5212 12.8079 11.6417 10.8333H8.35835ZM16.615 10.8333H13.3109C13.2068 12.7585 12.7305 14.6453 11.9084 16.3892C13.1467 16.0184 14.2507 15.296 15.0862 14.3097C15.9218 13.3235 16.4529 12.1157 16.615 10.8333ZM3.38502 9.16666H6.68919C6.79325 7.24148 7.26953 5.35473 8.09169 3.61082C6.85337 3.98156 5.74937 4.70395 4.91383 5.69024C4.07829 6.67652 3.54718 7.88424 3.38502 9.16666ZM8.35919 9.16666H11.6409C11.5206 7.19216 10.96 5.2696 10 3.53999C9.03975 5.26953 8.47882 7.19209 8.35835 9.16666H8.35919ZM11.9084 3.61082C12.7305 5.35473 13.2068 7.24148 13.3109 9.16666H16.615C16.4529 7.88424 15.9218 6.67652 15.0862 5.69024C14.2507 4.70395 13.1467 3.98156 11.9084 3.61082Z"></path>
</svg>
