<svg width="20" height="20" viewBox="0 0 20 20" fill="none" xmlns="http://www.w3.org/2000/svg">
<path d="M6.0758 17.3533L1.66664 18.3333L2.64664 13.9242C2.00125 12.717 1.66457 11.3689 1.66664 9.99999C1.66664 5.39749 5.39747 1.66666 9.99997 1.66666C14.6025 1.66666 18.3333 5.39749 18.3333 9.99999C18.3333 14.6025 14.6025 18.3333 9.99997 18.3333C8.6311 18.3354 7.28298 17.9987 6.0758 17.3533ZM6.31747 15.5925L6.86164 15.8842C7.82709 16.4001 8.9053 16.6689 9.99997 16.6667C11.3185 16.6667 12.6074 16.2757 13.7038 15.5431C14.8001 14.8106 15.6546 13.7694 16.1592 12.5512C16.6638 11.333 16.7958 9.99259 16.5385 8.69939C16.2813 7.40618 15.6464 6.2183 14.714 5.28594C13.7817 4.35359 12.5938 3.71866 11.3006 3.46142C10.0074 3.20419 8.66692 3.33621 7.44875 3.84079C6.23057 4.34538 5.18938 5.19986 4.45684 6.29619C3.7243 7.39252 3.3333 8.68145 3.3333 9.99999C3.3333 11.1117 3.60414 12.1817 4.11664 13.1383L4.40747 13.6825L3.86164 16.1383L6.31747 15.5925Z" fill="black"/>
</svg>
