<svg width="12" height="18" viewBox="0 0 12 18" fill="none" xmlns="http://www.w3.org/2000/svg">
<path d="M1.83334 2.33329V15.6666H10.1667V2.33329H1.83334ZM1.00001 0.666626H11C11.221 0.666626 11.433 0.754423 11.5893 0.910704C11.7455 1.06698 11.8333 1.27895 11.8333 1.49996V16.5C11.8333 16.721 11.7455 16.9329 11.5893 17.0892C11.433 17.2455 11.221 17.3333 11 17.3333H1.00001C0.778991 17.3333 0.56703 17.2455 0.41075 17.0892C0.254469 16.9329 0.166672 16.721 0.166672 16.5V1.49996C0.166672 1.27895 0.254469 1.06698 0.41075 0.910704C0.56703 0.754423 0.778991 0.666626 1.00001 0.666626ZM6.00001 13.1666C6.22102 13.1666 6.43298 13.2544 6.58926 13.4107C6.74554 13.567 6.83334 13.7789 6.83334 14C6.83334 14.221 6.74554 14.4329 6.58926 14.5892C6.43298 14.7455 6.22102 14.8333 6.00001 14.8333C5.77899 14.8333 5.56703 14.7455 5.41075 14.5892C5.25447 14.4329 5.16667 14.221 5.16667 14C5.16667 13.7789 5.25447 13.567 5.41075 13.4107C5.56703 13.2544 5.77899 13.1666 6.00001 13.1666Z" fill="#00D74A"/>
</svg>
