<svg width="18" height="18" viewBox="0 0 18 18" fill="none" xmlns="http://www.w3.org/2000/svg">
<path d="M11.845 4.16667H16.5067C16.9633 4.16667 17.3333 4.5375 17.3333 5V16.6667C17.3333 17.1267 16.9542 17.5 16.5067 17.5H1.49333C1.38427 17.4998 1.27633 17.478 1.1757 17.436C1.07506 17.394 0.983723 17.3325 0.906916 17.255C0.83011 17.1776 0.769349 17.0858 0.72812 16.9848C0.686892 16.8838 0.666007 16.7757 0.666666 16.6667V5C0.666666 4.54 1.04583 4.16667 1.49333 4.16667H6.155L4.04167 2.05333L5.22 0.875L8.51166 4.16667H9.48833L12.78 0.875L13.9583 2.05333L11.845 4.16667ZM2.33333 5.83333V15.8333H15.6667V5.83333H2.33333Z" fill="black"/>
</svg>
