<svg width="26" height="20" viewBox="0 0 26 20" fill="none" xmlns="http://www.w3.org/2000/svg">
<path d="M22.5075 3.74375C22.4125 3.37125 22.1425 3.09 21.8337 3.00375C21.2875 2.85 18.625 2.5 13 2.5C7.375 2.5 4.715 2.85 4.16375 3.00375C3.85875 3.08875 3.58875 3.37 3.4925 3.74375C3.35625 4.27375 3 6.495 3 10C3 13.505 3.35625 15.725 3.4925 16.2575C3.5875 16.6287 3.8575 16.91 4.165 16.995C4.715 17.15 7.375 17.5 13 17.5C18.625 17.5 21.2863 17.15 21.8363 16.9963C22.1413 16.9113 22.4113 16.63 22.5075 16.2562C22.6438 15.7262 23 13.5 23 10C23 6.5 22.6438 4.275 22.5075 3.74375ZM24.9287 3.1225C25.5 5.35 25.5 10 25.5 10C25.5 10 25.5 14.65 24.9287 16.8775C24.6112 18.1088 23.6825 19.0775 22.5062 19.405C20.37 20 13 20 13 20C13 20 5.63375 20 3.49375 19.405C2.3125 19.0725 1.385 18.105 1.07125 16.8775C0.5 14.65 0.5 10 0.5 10C0.5 10 0.5 5.35 1.07125 3.1225C1.38875 1.89125 2.3175 0.9225 3.49375 0.595C5.63375 -2.23517e-07 13 0 13 0C13 0 20.37 -2.23517e-07 22.5062 0.595C23.6875 0.9275 24.615 1.895 24.9287 3.1225ZM10.5 14.375V5.625L18 10L10.5 14.375Z" fill="black"/>
</svg>
