<svg width="21" height="23" viewBox="0 0 21 23" fill="none" xmlns="http://www.w3.org/2000/svg">
<path d="M17.1016 14.5385H13.2267V13.1539H17.1016V14.5385Z" fill="#2F2B29"/>
<path d="M19.6848 20.077H15.8099V18.6924H19.6848V20.077Z" fill="#2F2B29"/>
<path d="M18.3932 17.3077H14.5183V15.9231H18.3932V17.3077Z" fill="#2F2B29"/>
<path d="M11.2912 14.5386C11.2866 13.9544 11.1413 13.3814 10.8693 12.8752C10.5973 12.369 10.2078 11.9468 9.73867 11.6496L14.5183 2.76933L13.4011 2.07703L8.50775 11.1643C7.90721 11.0204 7.28262 11.0403 6.6911 11.2221C6.09958 11.4039 5.56002 11.7417 5.12176 12.2048C2.70384 14.7047 2.89113 20.5492 2.90017 20.797C2.90684 20.9758 2.97782 21.1449 3.09822 21.2688C3.21862 21.3927 3.37908 21.4618 3.54598 21.4616H13.2273C13.3629 21.4616 13.495 21.4159 13.605 21.331C13.7149 21.246 13.7972 21.1261 13.84 20.9883C13.8829 20.8504 13.8842 20.7016 13.8438 20.5629C13.8034 20.4242 13.7233 20.3027 13.6148 20.2155C11.3287 18.3767 11.2912 14.576 11.2912 14.5386ZM8.015 12.4596C8.53189 12.4657 9.02669 12.6851 9.39645 13.0724C9.76621 13.4596 9.98247 13.9848 10.0002 14.5386C10.0002 14.5649 10.0015 14.6826 10.0112 14.8633L6.20091 13.0466C6.4519 12.8248 6.74153 12.6586 7.05296 12.5578C7.3644 12.457 7.69141 12.4236 8.015 12.4596ZM10.2883 20.077C9.77205 19.5136 9.44301 18.7838 9.35183 18.0001H8.0602C8.10646 18.7369 8.32115 19.4502 8.68535 20.077H7.24971C6.98412 19.1786 6.82253 18.2485 6.76858 17.3078H5.47696C5.5186 18.2457 5.66274 19.1751 5.90642 20.077H4.18533C4.20535 18.806 4.37262 15.998 5.34973 14.1557L10.2146 16.475C10.4484 17.776 10.9467 19.0059 11.6742 20.077H10.2883Z" fill="#2F2B29"/>
</svg>
