<svg width="78" height="68" viewBox="0 0 78 68" fill="none" xmlns="http://www.w3.org/2000/svg">
<g clip-path="url(#clip0)">
<path d="M74.6611 3.12501C73.9452 2.72671 73.1447 2.45323 72.3054 2.32017C71.4661 2.18712 70.6044 2.19711 69.7696 2.34957C68.9348 2.50202 68.1432 2.79396 67.4401 3.2087C66.7369 3.62345 66.136 4.15287 65.6716 4.76672L29.25 52.8872L11.4876 38.81C10.8609 38.3133 10.1263 37.9273 9.32556 37.674C8.52484 37.4207 7.67375 37.3051 6.82089 37.3337C5.09846 37.3915 3.47337 38.0335 2.30313 39.1183C1.13288 40.2031 0.513338 41.642 0.580789 43.1184C0.648239 44.5947 1.39716 45.9877 2.66279 46.9907L25.9848 65.473C25.9848 65.473 26.6543 65.967 26.9641 66.1397C27.6802 66.5383 28.4808 66.812 29.3204 66.9452C30.1599 67.0784 31.0218 67.0685 31.8569 66.9161C32.6919 66.7636 33.4838 66.4716 34.1871 66.0567C34.8904 65.6418 35.4914 65.1121 35.9558 64.498L76.5765 10.8303C77.0411 10.2166 77.3602 9.53046 77.5154 8.81106C77.6707 8.09165 77.659 7.35308 77.4811 6.63754C77.3033 5.92199 76.9627 5.24349 76.4788 4.6408C75.995 4.03811 75.3773 3.52304 74.6611 3.12501V3.12501Z" fill="#FEDD00"/>
</g>
<defs>
<clipPath id="clip0">
<rect width="78" height="66.8571" fill="white" transform="translate(0 0.571411)"/>
</clipPath>
</defs>
</svg>
