<svg width="73" height="74" viewBox="0 0 73 74" fill="none" xmlns="http://www.w3.org/2000/svg">
<path fill-rule="evenodd" clip-rule="evenodd" d="M56.6157 5.41071H18.5286V10.1054H5.28571V32.1265C5.28571 40.6371 14.2257 47.6405 22.9986 48.3691C25.8786 51.6477 30.9443 54.0292 35.4528 55.0446V60.8003C31.1414 62.2074 23.44 65.5133 22.9986 69.1152H52.5871C52.1414 65.5133 43.6557 62.2028 39.3357 60.8003V55.0446C43.8614 54.0292 49.1543 51.6477 52.0386 48.3691C60.8071 47.6405 69.3528 40.6371 69.3528 32.1265V10.1054H56.6157V5.41071ZM9.35285 14.2765H18.22V33.2467C18.22 36.9897 19.1286 40.5506 20.7271 43.7563C14.0928 41.5114 9.35285 35.7284 9.35285 28.9618V14.2765ZM44.0843 37.4132L37.4671 33.5381L30.8414 37.4132L32.1057 29.2168L26.7486 23.4155L34.15 22.2179L37.4671 14.7683L40.7757 22.2179L48.1771 23.4155L42.82 29.2168L44.0843 37.4132ZM53.92 44.3619C55.5271 41.0105 56.4486 37.3039 56.4486 33.3833V14.3995H65.3371V28.9071C65.3371 35.9788 60.5757 42.0169 53.92 44.3619Z" fill="#FEDD00"/>
</svg>
