<svg width="25" height="24" viewBox="0 0 25 24" fill="none" xmlns="http://www.w3.org/2000/svg">
<path d="M12.479 4.52898C14.828 2.41998 18.458 2.48998 20.721 4.75698C22.983 7.02498 23.061 10.637 20.957 12.993L12.477 21.485L3.99903 12.993C1.89503 10.637 1.97403 7.01898 4.23503 4.75698C6.50003 2.49298 10.123 2.41698 12.479 4.52898ZM19.305 6.16998C17.805 4.66798 15.385 4.60698 13.815 6.01698L12.48 7.21498L11.144 6.01798C9.56903 4.60598 7.15403 4.66798 5.65003 6.17198C4.16003 7.66198 4.08503 10.047 5.45803 11.623L12.478 18.654L19.498 11.624C20.872 10.047 20.797 7.66498 19.305 6.16998Z" fill="black"/>
</svg>
