<svg width="44" height="43" viewBox="0 0 44 43" fill="none" xmlns="http://www.w3.org/2000/svg">
<g clip-path="url(#clip0)">
<path d="M6.21436 31.5901V15.1785L24.284 24.7088C24.4898 24.8299 24.7242 24.8937 24.963 24.8937C25.2018 24.8937 25.4362 24.8299 25.642 24.7088L43.7143 15.1785V31.5901C43.7143 33.3661 43.0088 35.0693 41.753 36.3252C40.4972 37.581 38.7939 38.2865 37.0179 38.2865H12.9108C11.1348 38.2865 9.43152 37.581 8.17569 36.3252C6.91987 35.0693 6.21436 33.3661 6.21436 31.5901Z" fill="#FEDD00"/>
<path d="M6.25452 12.0978C6.43708 10.4602 7.21699 8.94743 8.44504 7.84886C9.67309 6.75029 11.2631 6.14305 12.9108 6.14331H37.0179C38.6656 6.14305 40.2556 6.75029 41.4836 7.84886C42.7117 8.94743 43.4916 10.4602 43.6742 12.0978L24.9643 22.0004L6.25452 12.0978Z" fill="#FEDD00"/>
<path d="M31.6607 43.6433C33.8518 43.6433 35.7965 42.5906 37.0179 40.9647H12.9107C10.4243 40.9647 8.03978 39.977 6.28162 38.2188C4.52347 36.4607 3.53575 34.0761 3.53575 31.5897V12.8397C1.90986 14.0612 0.857178 16.0058 0.857178 18.1969V31.5897C0.857178 34.7865 2.1271 37.8524 4.38759 40.1129C6.64807 42.3734 9.71394 43.6433 12.9107 43.6433H31.6607Z" fill="#FEDD00"/>
</g>
<defs>
<clipPath id="clip0">
<rect width="42.8571" height="42.8571" fill="white" transform="translate(0.857178 0.143311)"/>
</clipPath>
</defs>
</svg>
