<svg width="27" height="27" viewBox="0 0 27 27" fill="none" xmlns="http://www.w3.org/2000/svg">
<path d="M14.625 9C15.5201 9 16.3786 9.35558 17.0115 9.98851C17.6444 10.6214 18 11.4799 18 12.375C18 12.6734 18.1185 12.9595 18.3295 13.1705C18.5405 13.3815 18.8266 13.5 19.125 13.5C19.4234 13.5 19.7095 13.3815 19.9205 13.1705C20.1315 12.9595 20.25 12.6734 20.25 12.375C20.25 10.8832 19.6574 9.45242 18.6025 8.39752C17.5476 7.34263 16.1168 6.75 14.625 6.75C14.3266 6.75 14.0405 6.86853 13.8295 7.07951C13.6185 7.29048 13.5 7.57663 13.5 7.875C13.5 8.17337 13.6185 8.45952 13.8295 8.67049C14.0405 8.88147 14.3266 9 14.625 9Z" fill="#2F2B29"/>
<path d="M14.625 4.5C16.7136 4.5 18.7166 5.32968 20.1935 6.80653C21.6703 8.28338 22.5 10.2864 22.5 12.375C22.5 12.6734 22.6185 12.9595 22.8295 13.1705C23.0405 13.3815 23.3266 13.5 23.625 13.5C23.9234 13.5 24.2095 13.3815 24.4205 13.1705C24.6315 12.9595 24.75 12.6734 24.75 12.375C24.75 9.68968 23.6833 7.11435 21.7845 5.21554C19.8856 3.31674 17.3103 2.25 14.625 2.25C14.3266 2.25 14.0405 2.36853 13.8295 2.5795C13.6185 2.79048 13.5 3.07663 13.5 3.375C13.5 3.67337 13.6185 3.95952 13.8295 4.1705C14.0405 4.38147 14.3266 4.5 14.625 4.5ZM24.4687 17.8988C24.4069 17.7181 24.3001 17.5563 24.1583 17.4283C24.0166 17.3004 23.8447 17.2106 23.6587 17.1675L16.9087 15.6263C16.7255 15.5847 16.5348 15.5897 16.354 15.6408C16.1732 15.6919 16.0081 15.7875 15.8737 15.9187C15.7162 16.065 15.705 16.0763 14.9737 17.4712C12.5473 16.3532 10.6031 14.401 9.495 11.97C10.9237 11.25 10.935 11.25 11.0812 11.0813C11.2125 10.9469 11.3081 10.7818 11.3592 10.601C11.4103 10.4202 11.4153 10.2295 11.3737 10.0463L9.8325 3.375C9.78935 3.18903 9.69959 3.0171 9.57166 2.8754C9.44373 2.7337 9.28185 2.62688 9.10125 2.565C8.83852 2.47116 8.56722 2.40334 8.29125 2.3625C8.00691 2.29657 7.71675 2.25889 7.425 2.25C6.0525 2.25 4.73622 2.79522 3.76572 3.76572C2.79522 4.73622 2.25 6.0525 2.25 7.425C2.25595 12.018 4.08317 16.4213 7.33095 19.669C10.5787 22.9168 14.9819 24.744 19.575 24.75C20.2546 24.75 20.9275 24.6161 21.5554 24.3561C22.1832 24.096 22.7537 23.7148 23.2343 23.2343C23.7148 22.7537 24.096 22.1832 24.3561 21.5554C24.6161 20.9275 24.75 20.2546 24.75 19.575C24.7503 19.2887 24.7278 19.0027 24.6825 18.72C24.6352 18.4406 24.5637 18.1658 24.4687 17.8988Z" fill="#2F2B29"/>
</svg>
