<svg width="43" height="43" viewBox="0 0 43 43" fill="none" xmlns="http://www.w3.org/2000/svg">
<path d="M23.2143 14.429C24.6351 14.429 25.9977 14.9934 27.0024 15.998C28.007 17.0027 28.5714 18.3653 28.5714 19.7861C28.5714 20.2597 28.7596 20.7139 29.0945 21.0488C29.4294 21.3837 29.8836 21.5718 30.3572 21.5718C30.8308 21.5718 31.285 21.3837 31.6199 21.0488C31.9547 20.7139 32.1429 20.2597 32.1429 19.7861C32.1429 17.4181 31.2022 15.1471 29.5278 13.4727C27.8533 11.7982 25.5823 10.8575 23.2143 10.8575C22.7407 10.8575 22.2865 11.0457 21.9516 11.3806C21.6167 11.7155 21.4286 12.1697 21.4286 12.6433C21.4286 13.1169 21.6167 13.5711 21.9516 13.9059C22.2865 14.2408 22.7407 14.429 23.2143 14.429V14.429Z" fill="#FEDD00"/>
<path d="M23.2143 7.28615C26.5295 7.28615 29.7089 8.60311 32.0531 10.9473C34.3973 13.2915 35.7143 16.4709 35.7143 19.7862C35.7143 20.2598 35.9024 20.714 36.2373 21.0488C36.5722 21.3837 37.0264 21.5719 37.5 21.5719C37.9736 21.5719 38.4278 21.3837 38.7627 21.0488C39.0976 20.714 39.2857 20.2598 39.2857 19.7862C39.2857 15.5237 37.5925 11.4359 34.5785 8.42193C31.5645 5.40796 27.4767 3.71472 23.2143 3.71472C22.7407 3.71472 22.2865 3.90286 21.9516 4.23775C21.6167 4.57263 21.4286 5.02684 21.4286 5.50044C21.4286 5.97404 21.6167 6.42824 21.9516 6.76313C22.2865 7.09801 22.7407 7.28615 23.2143 7.28615V7.28615ZM38.8393 28.554C38.741 28.2673 38.5715 28.0104 38.3466 27.8073C38.1216 27.6043 37.8487 27.4618 37.5536 27.3933L26.8393 24.9469C26.5484 24.8809 26.2457 24.8889 25.9588 24.97C25.6718 25.0511 25.4097 25.2027 25.1964 25.4112C24.9464 25.6433 24.9286 25.6612 23.7678 27.8754C19.9164 26.1007 16.8303 23.002 15.0714 19.1433C17.3393 18.0004 17.3571 18.0004 17.5893 17.7326C17.7977 17.5193 17.9494 17.2572 18.0305 16.9702C18.1116 16.6833 18.1195 16.3805 18.0536 16.0897L15.6071 5.50044C15.5386 5.20525 15.3962 4.93235 15.1931 4.70742C14.99 4.48249 14.7331 4.31294 14.4464 4.21472C14.0294 4.06577 13.5988 3.95812 13.1607 3.89329C12.7094 3.78864 12.2488 3.72883 11.7857 3.71472C9.60713 3.71472 7.5178 4.58015 5.97732 6.12063C4.43684 7.66111 3.57141 9.75044 3.57141 11.929C3.58086 19.2196 6.48121 26.2088 11.6364 31.364C16.7916 36.5192 23.7809 39.4196 31.0714 39.429C32.1501 39.429 33.2183 39.2165 34.2149 38.8037C35.2115 38.3909 36.117 37.7859 36.8798 37.0231C37.6426 36.2603 38.2476 35.3548 38.6604 34.3582C39.0732 33.3616 39.2857 32.2934 39.2857 31.2147C39.2862 30.7602 39.2504 30.3064 39.1786 29.8576C39.1035 29.414 38.99 28.9779 38.8393 28.554V28.554Z" fill="#FEDD00"/>
</svg>
