<svg width="12" height="11" viewBox="0 0 12 11" fill="none" xmlns="http://www.w3.org/2000/svg">
<path d="M5.10295 1.54301C5.75888 1.54241 6.40026 1.73813 6.94595 2.1054C7.49163 2.47268 7.9171 2.99502 8.16854 3.60633C8.41997 4.21765 8.48606 4.89048 8.35846 5.53971C8.23086 6.18894 7.9153 6.7854 7.45169 7.25363C6.98809 7.72185 6.39727 8.04082 5.75398 8.17017C5.11068 8.29951 4.44383 8.23343 3.83776 7.98028C3.23169 7.72714 2.71365 7.2983 2.34917 6.74801C1.98469 6.19772 1.79014 5.55072 1.79014 4.88885C1.79412 4.00324 2.14432 3.15501 2.76465 2.5285C3.38497 1.90199 4.22528 1.54784 5.10295 1.54301ZM5.10295 0.916626C4.32436 0.916626 3.56326 1.14959 2.91588 1.58607C2.26851 2.02254 1.76395 2.64292 1.46599 3.36874C1.16804 4.09457 1.09008 4.89325 1.24198 5.66379C1.39387 6.43433 1.7688 7.14211 2.31934 7.69763C2.86989 8.25316 3.57132 8.63147 4.33495 8.78474C5.09858 8.93801 5.8901 8.85935 6.60942 8.5587C7.32874 8.25805 7.94355 7.74892 8.37611 7.0957C8.80868 6.44247 9.03955 5.67448 9.03955 4.88885C9.03955 3.83535 8.6248 2.825 7.88655 2.08006C7.14829 1.33513 6.147 0.916626 5.10295 0.916626Z" fill="#2F2B29"/>
<path d="M10.7558 10.1719L8.52404 7.90466L8.09404 8.3355L10.3258 10.6027C10.3538 10.6312 10.3872 10.6538 10.4239 10.6693C10.4606 10.6848 10.4999 10.6929 10.5397 10.693C10.5795 10.6932 10.6189 10.6854 10.6558 10.6702C10.6926 10.6549 10.726 10.6325 10.7543 10.6042C10.7825 10.576 10.8049 10.5423 10.8203 10.5053C10.8357 10.4683 10.8436 10.4285 10.8438 10.3884C10.8439 10.3482 10.8362 10.3085 10.8211 10.2713C10.806 10.2342 10.7838 10.2004 10.7558 10.1719Z" fill="#2F2B29"/>
</svg>
