<svg width="24" height="24" viewBox="0 0 24 24" fill="none" xmlns="http://www.w3.org/2000/svg">
<path d="M17.639 16.617L21.8289 20.899L20.4447 22.314L16.2558 18.031C14.6972 19.3082 12.7585 20.0029 10.7609 20C5.90089 20 1.95654 15.968 1.95654 11C1.95654 6.032 5.90089 2 10.7609 2C15.6209 2 19.5652 6.032 19.5652 11C19.5681 13.042 18.8885 15.0237 17.639 16.617ZM15.6767 15.875C16.9182 14.5699 17.6115 12.8204 17.6087 11C17.6087 7.132 14.5438 4 10.7609 4C6.97698 4 3.91306 7.132 3.91306 11C3.91306 14.867 6.97698 18 10.7609 18C12.5417 18.0029 14.2532 17.2941 15.5299 16.025L15.6767 15.875Z" fill="black"/>
</svg>
