<svg width="85" height="85" viewBox="0 0 85 85" fill="none" xmlns="http://www.w3.org/2000/svg">
<path d="M75.3794 29.3101L54.3037 26.2471L44.8823 7.147C44.625 6.62405 44.2016 6.20071 43.6787 5.94339C42.3672 5.29593 40.7734 5.83548 40.1177 7.147L30.6963 26.2471L9.62059 29.3101C9.03953 29.3931 8.50828 29.667 8.10154 30.0821C7.60982 30.5875 7.33886 31.2674 7.3482 31.9725C7.35753 32.6776 7.64641 33.3501 8.15135 33.8423L23.3999 48.709L19.7973 69.7017C19.7129 70.19 19.7669 70.6923 19.9533 71.1515C20.1398 71.6106 20.4511 72.0084 20.8521 72.2996C21.2531 72.5909 21.7277 72.7639 22.222 72.7992C22.7163 72.8344 23.2107 72.7304 23.6489 72.4991L42.5 62.5879L61.3511 72.4991C61.8657 72.773 62.4634 72.8643 63.0361 72.7647C64.4805 72.5157 65.4516 71.146 65.2026 69.7017L61.6001 48.709L76.8486 33.8423C77.2636 33.4356 77.5376 32.9043 77.6206 32.3233C77.8447 30.8706 76.832 29.5259 75.3794 29.3101Z" fill="#FEDD00"/>
</svg>
